<mxfile host="Electron" modified="2023-05-03T12:32:56.543Z" agent="Mozilla/5.0 (X11; Linux x86_64) AppleWebKit/537.36 (KHTML, like Gecko) draw.io/21.2.1 Chrome/112.0.5615.87 Electron/24.1.2 Safari/537.36" etag="IfGthzq9bwykvw0xhSvc" version="21.2.1" type="device">
  <diagram name="第 1 页" id="WRvl_2cdZziGvFzCcgue">
    <mxGraphModel dx="1115" dy="753" grid="1" gridSize="10" guides="1" tooltips="1" connect="1" arrows="1" fold="1" page="1" pageScale="1" pageWidth="827" pageHeight="1169" math="0" shadow="0">
      <root>
        <mxCell id="0" />
        <mxCell id="1" parent="0" />
        <mxCell id="JGOG6nVRLbiCsh2qMiBH-129" value="" style="group" vertex="1" connectable="0" parent="1">
          <mxGeometry x="270" y="560" width="183" height="111.25" as="geometry" />
        </mxCell>
        <mxCell id="JGOG6nVRLbiCsh2qMiBH-128" value="" style="rounded=1;whiteSpace=wrap;html=1;fillColor=#ffe6cc;strokeColor=#d79b00;shadow=0;" vertex="1" parent="JGOG6nVRLbiCsh2qMiBH-129">
          <mxGeometry width="183" height="105.00000000000003" as="geometry" />
        </mxCell>
        <mxCell id="JGOG6nVRLbiCsh2qMiBH-120" style="edgeStyle=orthogonalEdgeStyle;rounded=0;orthogonalLoop=1;jettySize=auto;html=1;exitX=1;exitY=0.5;exitDx=0;exitDy=0;" edge="1" parent="JGOG6nVRLbiCsh2qMiBH-129" source="JGOG6nVRLbiCsh2qMiBH-119">
          <mxGeometry relative="1" as="geometry">
            <mxPoint x="111.92790697674421" y="19.500000000000004" as="targetPoint" />
          </mxGeometry>
        </mxCell>
        <mxCell id="JGOG6nVRLbiCsh2qMiBH-119" value="slab" style="rounded=1;whiteSpace=wrap;html=1;fillColor=#ffe6cc;strokeColor=#d79b00;shadow=0;" vertex="1" parent="JGOG6nVRLbiCsh2qMiBH-129">
          <mxGeometry x="34.04651162790699" y="8.750000000000002" width="57.0279069767442" height="21.250000000000004" as="geometry" />
        </mxCell>
        <mxCell id="JGOG6nVRLbiCsh2qMiBH-121" value="slab" style="rounded=1;whiteSpace=wrap;html=1;fillColor=#ffe6cc;strokeColor=#d79b00;shadow=0;" vertex="1" parent="JGOG6nVRLbiCsh2qMiBH-129">
          <mxGeometry x="111.92790697674421" y="8.750000000000002" width="57.0279069767442" height="21.250000000000004" as="geometry" />
        </mxCell>
        <mxCell id="JGOG6nVRLbiCsh2qMiBH-122" value="slab" style="rounded=1;whiteSpace=wrap;html=1;fillColor=#ffe6cc;strokeColor=#d79b00;shadow=0;" vertex="1" parent="JGOG6nVRLbiCsh2qMiBH-129">
          <mxGeometry x="34.04651162790699" y="41.75" width="57.0279069767442" height="21.250000000000004" as="geometry" />
        </mxCell>
        <mxCell id="JGOG6nVRLbiCsh2qMiBH-125" style="edgeStyle=orthogonalEdgeStyle;rounded=0;orthogonalLoop=1;jettySize=auto;html=1;exitX=1;exitY=0.5;exitDx=0;exitDy=0;" edge="1" parent="JGOG6nVRLbiCsh2qMiBH-129" source="JGOG6nVRLbiCsh2qMiBH-123">
          <mxGeometry relative="1" as="geometry">
            <mxPoint x="111.92790697674421" y="84.5" as="targetPoint" />
          </mxGeometry>
        </mxCell>
        <mxCell id="JGOG6nVRLbiCsh2qMiBH-123" value="slab" style="rounded=1;whiteSpace=wrap;html=1;fillColor=#ffe6cc;strokeColor=#d79b00;shadow=0;" vertex="1" parent="JGOG6nVRLbiCsh2qMiBH-129">
          <mxGeometry x="34.04651162790699" y="73.75000000000001" width="57.0279069767442" height="21.250000000000004" as="geometry" />
        </mxCell>
        <mxCell id="JGOG6nVRLbiCsh2qMiBH-124" value="slab" style="rounded=1;whiteSpace=wrap;html=1;fillColor=#ffe6cc;strokeColor=#d79b00;shadow=0;" vertex="1" parent="JGOG6nVRLbiCsh2qMiBH-129">
          <mxGeometry x="111.92790697674421" y="41.75" width="57.0279069767442" height="21.250000000000004" as="geometry" />
        </mxCell>
        <mxCell id="JGOG6nVRLbiCsh2qMiBH-126" style="edgeStyle=orthogonalEdgeStyle;rounded=0;orthogonalLoop=1;jettySize=auto;html=1;exitX=1;exitY=0.5;exitDx=0;exitDy=0;entryX=0;entryY=0.5;entryDx=0;entryDy=0;" edge="1" parent="JGOG6nVRLbiCsh2qMiBH-129" source="JGOG6nVRLbiCsh2qMiBH-122" target="JGOG6nVRLbiCsh2qMiBH-124">
          <mxGeometry relative="1" as="geometry" />
        </mxCell>
        <mxCell id="JGOG6nVRLbiCsh2qMiBH-127" value="slab" style="rounded=1;whiteSpace=wrap;html=1;fillColor=#ffe6cc;strokeColor=#d79b00;shadow=0;" vertex="1" parent="JGOG6nVRLbiCsh2qMiBH-129">
          <mxGeometry x="111.92790697674421" y="73.75000000000001" width="57.0279069767442" height="21.250000000000004" as="geometry" />
        </mxCell>
        <mxCell id="JGOG6nVRLbiCsh2qMiBH-3" style="edgeStyle=orthogonalEdgeStyle;rounded=1;orthogonalLoop=1;jettySize=auto;html=1;exitX=0.5;exitY=1;exitDx=0;exitDy=0;entryX=0.5;entryY=0;entryDx=0;entryDy=0;" edge="1" parent="1" source="JGOG6nVRLbiCsh2qMiBH-4" target="JGOG6nVRLbiCsh2qMiBH-117">
          <mxGeometry relative="1" as="geometry">
            <mxPoint x="360" y="350" as="targetPoint" />
          </mxGeometry>
        </mxCell>
        <mxCell id="JGOG6nVRLbiCsh2qMiBH-130" style="edgeStyle=orthogonalEdgeStyle;rounded=1;orthogonalLoop=1;jettySize=auto;html=1;exitX=0.25;exitY=1;exitDx=0;exitDy=0;entryX=0;entryY=0.5;entryDx=0;entryDy=0;" edge="1" parent="1" source="JGOG6nVRLbiCsh2qMiBH-4" target="JGOG6nVRLbiCsh2qMiBH-119">
          <mxGeometry relative="1" as="geometry" />
        </mxCell>
        <mxCell id="JGOG6nVRLbiCsh2qMiBH-131" style="edgeStyle=orthogonalEdgeStyle;rounded=1;orthogonalLoop=1;jettySize=auto;html=1;exitX=0.25;exitY=1;exitDx=0;exitDy=0;entryX=0;entryY=0.5;entryDx=0;entryDy=0;" edge="1" parent="1" source="JGOG6nVRLbiCsh2qMiBH-4" target="JGOG6nVRLbiCsh2qMiBH-122">
          <mxGeometry relative="1" as="geometry" />
        </mxCell>
        <mxCell id="JGOG6nVRLbiCsh2qMiBH-132" style="edgeStyle=orthogonalEdgeStyle;rounded=1;orthogonalLoop=1;jettySize=auto;html=1;exitX=0.25;exitY=1;exitDx=0;exitDy=0;entryX=0;entryY=0.5;entryDx=0;entryDy=0;" edge="1" parent="1" source="JGOG6nVRLbiCsh2qMiBH-4" target="JGOG6nVRLbiCsh2qMiBH-123">
          <mxGeometry relative="1" as="geometry" />
        </mxCell>
        <mxCell id="JGOG6nVRLbiCsh2qMiBH-156" style="edgeStyle=orthogonalEdgeStyle;orthogonalLoop=1;jettySize=auto;html=1;exitX=1;exitY=0.5;exitDx=0;exitDy=0;entryX=0.25;entryY=0;entryDx=0;entryDy=0;curved=1;sketch=1;curveFitting=1;jiggle=2;" edge="1" parent="1" source="JGOG6nVRLbiCsh2qMiBH-4" target="JGOG6nVRLbiCsh2qMiBH-117">
          <mxGeometry relative="1" as="geometry" />
        </mxCell>
        <mxCell id="JGOG6nVRLbiCsh2qMiBH-4" value="cache" style="rounded=1;whiteSpace=wrap;html=1;fillColor=#dae8fc;strokeColor=#6c8ebf;shadow=0;" vertex="1" parent="1">
          <mxGeometry x="170" y="200" width="134" height="85" as="geometry" />
        </mxCell>
        <mxCell id="JGOG6nVRLbiCsh2qMiBH-17" value="objp_cache" style="text;html=1;align=center;verticalAlign=middle;resizable=0;points=[];autosize=1;strokeColor=none;fillColor=none;shadow=0;" vertex="1" parent="1">
          <mxGeometry x="240" y="300" width="80" height="30" as="geometry" />
        </mxCell>
        <mxCell id="JGOG6nVRLbiCsh2qMiBH-149" style="edgeStyle=orthogonalEdgeStyle;orthogonalLoop=1;jettySize=auto;html=1;exitX=0;exitY=0.5;exitDx=0;exitDy=0;entryX=0.25;entryY=0;entryDx=0;entryDy=0;curved=1;sketch=1;curveFitting=1;jiggle=2;" edge="1" parent="1" source="JGOG6nVRLbiCsh2qMiBH-117" target="JGOG6nVRLbiCsh2qMiBH-128">
          <mxGeometry relative="1" as="geometry" />
        </mxCell>
        <mxCell id="JGOG6nVRLbiCsh2qMiBH-157" style="edgeStyle=orthogonalEdgeStyle;orthogonalLoop=1;jettySize=auto;html=1;exitX=0.75;exitY=0;exitDx=0;exitDy=0;curved=1;sketch=1;curveFitting=1;jiggle=2;" edge="1" parent="1" source="JGOG6nVRLbiCsh2qMiBH-117">
          <mxGeometry relative="1" as="geometry">
            <mxPoint x="310" y="120" as="targetPoint" />
            <Array as="points">
              <mxPoint x="461" y="160" />
              <mxPoint x="310" y="160" />
            </Array>
          </mxGeometry>
        </mxCell>
        <mxCell id="JGOG6nVRLbiCsh2qMiBH-117" value="objp_cache" style="rounded=1;whiteSpace=wrap;html=1;fillColor=#f8cecc;strokeColor=#b85450;shadow=0;" vertex="1" parent="1">
          <mxGeometry x="360" y="370" width="134" height="85" as="geometry" />
        </mxCell>
        <mxCell id="JGOG6nVRLbiCsh2qMiBH-136" value="slab_full" style="text;html=1;align=center;verticalAlign=middle;resizable=0;points=[];autosize=1;strokeColor=none;fillColor=none;" vertex="1" parent="1">
          <mxGeometry x="200" y="558" width="70" height="30" as="geometry" />
        </mxCell>
        <mxCell id="JGOG6nVRLbiCsh2qMiBH-137" value="slab_partial" style="text;html=1;align=center;verticalAlign=middle;resizable=0;points=[];autosize=1;strokeColor=none;fillColor=none;" vertex="1" parent="1">
          <mxGeometry x="195" y="588" width="80" height="30" as="geometry" />
        </mxCell>
        <mxCell id="JGOG6nVRLbiCsh2qMiBH-138" value="slab_empty" style="text;html=1;align=center;verticalAlign=middle;resizable=0;points=[];autosize=1;strokeColor=none;fillColor=none;" vertex="1" parent="1">
          <mxGeometry x="195" y="618" width="80" height="30" as="geometry" />
        </mxCell>
        <mxCell id="JGOG6nVRLbiCsh2qMiBH-144" value="" style="curved=1;endArrow=classic;html=1;rounded=0;entryX=0.25;entryY=0;entryDx=0;entryDy=0;sketch=1;curveFitting=1;jiggle=2;" edge="1" parent="1" target="JGOG6nVRLbiCsh2qMiBH-4">
          <mxGeometry width="50" height="50" relative="1" as="geometry">
            <mxPoint x="270" y="120" as="sourcePoint" />
            <mxPoint x="260" y="170" as="targetPoint" />
            <Array as="points">
              <mxPoint x="260" y="120" />
              <mxPoint x="290" y="140" />
              <mxPoint x="200" y="140" />
            </Array>
          </mxGeometry>
        </mxCell>
        <mxCell id="JGOG6nVRLbiCsh2qMiBH-145" value="&lt;b&gt;kmem_cache_alloc&lt;/b&gt;" style="text;html=1;align=center;verticalAlign=middle;resizable=0;points=[];autosize=1;strokeColor=none;fillColor=none;" vertex="1" parent="1">
          <mxGeometry x="215" y="90" width="130" height="30" as="geometry" />
        </mxCell>
        <mxCell id="JGOG6nVRLbiCsh2qMiBH-147" value="&lt;font style=&quot;font-size: 16px; background-color: rgb(214, 229, 255);&quot;&gt;1. 请求 objp_cache 分配&lt;/font&gt;" style="text;html=1;align=center;verticalAlign=middle;resizable=0;points=[];autosize=1;strokeColor=none;fillColor=none;fontSize=16;" vertex="1" parent="1">
          <mxGeometry x="250" y="285" width="200" height="30" as="geometry" />
        </mxCell>
        <mxCell id="JGOG6nVRLbiCsh2qMiBH-151" value="&lt;font style=&quot;font-size: 16px; background-color: rgb(214, 229, 255);&quot;&gt;2. objp_cache 空，从 slab 分配&lt;/font&gt;" style="text;html=1;align=center;verticalAlign=middle;resizable=0;points=[];autosize=1;strokeColor=none;fillColor=none;fontSize=16;" vertex="1" parent="1">
          <mxGeometry x="195" y="470" width="250" height="30" as="geometry" />
        </mxCell>
        <mxCell id="JGOG6nVRLbiCsh2qMiBH-152" style="edgeStyle=orthogonalEdgeStyle;orthogonalLoop=1;jettySize=auto;html=1;exitX=0.75;exitY=0;exitDx=0;exitDy=0;entryX=0.75;entryY=1;entryDx=0;entryDy=0;curved=1;sketch=1;curveFitting=1;jiggle=2;" edge="1" parent="1" source="JGOG6nVRLbiCsh2qMiBH-128" target="JGOG6nVRLbiCsh2qMiBH-117">
          <mxGeometry relative="1" as="geometry" />
        </mxCell>
        <mxCell id="JGOG6nVRLbiCsh2qMiBH-155" value="&lt;font style=&quot;font-size: 16px; background-color: rgb(214, 229, 255);&quot;&gt;3. 填充到 objp_cache&lt;/font&gt;" style="text;html=1;align=center;verticalAlign=middle;resizable=0;points=[];autosize=1;strokeColor=none;fillColor=none;fontSize=16;" vertex="1" parent="1">
          <mxGeometry x="450" y="490" width="180" height="30" as="geometry" />
        </mxCell>
        <mxCell id="JGOG6nVRLbiCsh2qMiBH-158" value="&lt;font style=&quot;font-size: 16px; background-color: rgb(214, 229, 255);&quot;&gt;4. 成功分配对象&lt;/font&gt;" style="text;html=1;align=center;verticalAlign=middle;resizable=0;points=[];autosize=1;strokeColor=none;fillColor=none;fontSize=16;" vertex="1" parent="1">
          <mxGeometry x="400" y="220" width="140" height="30" as="geometry" />
        </mxCell>
      </root>
    </mxGraphModel>
  </diagram>
</mxfile>
